<?xml version="1.0" encoding="utf-8" standalone="no"?>
<!DOCTYPE svg PUBLIC "-//W3C//DTD SVG 1.1//EN"
  "http://www.w3.org/Graphics/SVG/1.1/DTD/svg11.dtd">
<svg height="1800pt" version="1.1" viewBox="0 0 864 1800" width="864pt" xmlns="http://www.w3.org/2000/svg" xmlns:xlink="http://www.w3.org/1999/xlink">
 <metadata>
  <rdf:RDF xmlns:cc="http://creativecommons.org/ns#" xmlns:dc="http://purl.org/dc/elements/1.1/" xmlns:rdf="http://www.w3.org/1999/02/22-rdf-syntax-ns#">
   <cc:Work>
    <dc:type rdf:resource="http://purl.org/dc/dcmitype/StillImage"/>
    <dc:date>2021-10-21T15:07:17.178292</dc:date>
    <dc:format>image/svg+xml</dc:format>
    <dc:creator>
     <cc:Agent>
      <dc:title>Matplotlib v3.4.3, https://matplotlib.org/</dc:title>
     </cc:Agent>
    </dc:creator>
   </cc:Work>
  </rdf:RDF>
 </metadata>
 <defs>
  <style type="text/css">*{stroke-linecap:butt;stroke-linejoin:round;}</style>
 </defs>
 <g id="figure_1">
  <g id="patch_1">
   <path d="M 0 1800 
L 864 1800 
L 864 0 
L 0 0 
z
" style="fill:#ffffff;"/>
  </g>
  <g id="axes_1">
   <g id="patch_2">
    <path d="M 108 1602 
L 777.6 1602 
L 777.6 216 
L 108 216 
z
" style="fill:#ffffff;"/>
   </g>
   <g id="matplotlib.axis_1">
    <g id="xtick_1">
     <g id="line2d_1">
      <path clip-path="url(#p502dbb73ba)" d="M 138.436364 1602 
L 138.436364 216 
" style="fill:none;stroke:#808080;stroke-linecap:square;stroke-width:1.5;"/>
     </g>
     <g id="line2d_2">
      <defs>
       <path d="M 0 0 
L 0 3.5 
" id="m9518e1de23" style="stroke:#000000;stroke-width:0.8;"/>
      </defs>
      <g>
       <use style="stroke:#000000;stroke-width:0.8;" x="138.436364" xlink:href="#m9518e1de23" y="1602"/>
      </g>
     </g>
     <g id="text_1">
      <!-- 0 -->
      <g transform="translate(133.346364 1621.1575)scale(0.16 -0.16)">
       <defs>
        <path d="M 2034 4250 
Q 1547 4250 1301 3770 
Q 1056 3291 1056 2328 
Q 1056 1369 1301 889 
Q 1547 409 2034 409 
Q 2525 409 2770 889 
Q 3016 1369 3016 2328 
Q 3016 3291 2770 3770 
Q 2525 4250 2034 4250 
z
M 2034 4750 
Q 2819 4750 3233 4129 
Q 3647 3509 3647 2328 
Q 3647 1150 3233 529 
Q 2819 -91 2034 -91 
Q 1250 -91 836 529 
Q 422 1150 422 2328 
Q 422 3509 836 4129 
Q 1250 4750 2034 4750 
z
" id="DejaVuSans-30" transform="scale(0.015625)"/>
       </defs>
       <use xlink:href="#DejaVuSans-30"/>
      </g>
     </g>
    </g>
    <g id="xtick_2">
     <g id="line2d_3">
      <path clip-path="url(#p502dbb73ba)" d="M 274.161508 1602 
L 274.161508 216 
" style="fill:none;stroke:#808080;stroke-linecap:square;stroke-width:1.5;"/>
     </g>
     <g id="line2d_4">
      <g>
       <use style="stroke:#000000;stroke-width:0.8;" x="274.161508" xlink:href="#m9518e1de23" y="1602"/>
      </g>
     </g>
     <g id="text_2">
      <!-- 200 -->
      <g transform="translate(258.891508 1621.1575)scale(0.16 -0.16)">
       <defs>
        <path d="M 1228 531 
L 3431 531 
L 3431 0 
L 469 0 
L 469 531 
Q 828 903 1448 1529 
Q 2069 2156 2228 2338 
Q 2531 2678 2651 2914 
Q 2772 3150 2772 3378 
Q 2772 3750 2511 3984 
Q 2250 4219 1831 4219 
Q 1534 4219 1204 4116 
Q 875 4013 500 3803 
L 500 4441 
Q 881 4594 1212 4672 
Q 1544 4750 1819 4750 
Q 2544 4750 2975 4387 
Q 3406 4025 3406 3419 
Q 3406 3131 3298 2873 
Q 3191 2616 2906 2266 
Q 2828 2175 2409 1742 
Q 1991 1309 1228 531 
z
" id="DejaVuSans-32" transform="scale(0.015625)"/>
       </defs>
       <use xlink:href="#DejaVuSans-32"/>
       <use x="63.623047" xlink:href="#DejaVuSans-30"/>
       <use x="127.246094" xlink:href="#DejaVuSans-30"/>
      </g>
     </g>
    </g>
    <g id="xtick_3">
     <g id="line2d_5">
      <path clip-path="url(#p502dbb73ba)" d="M 409.886652 1602 
L 409.886652 216 
" style="fill:none;stroke:#808080;stroke-linecap:square;stroke-width:1.5;"/>
     </g>
     <g id="line2d_6">
      <g>
       <use style="stroke:#000000;stroke-width:0.8;" x="409.886652" xlink:href="#m9518e1de23" y="1602"/>
      </g>
     </g>
     <g id="text_3">
      <!-- 400 -->
      <g transform="translate(394.616652 1621.1575)scale(0.16 -0.16)">
       <defs>
        <path d="M 2419 4116 
L 825 1625 
L 2419 1625 
L 2419 4116 
z
M 2253 4666 
L 3047 4666 
L 3047 1625 
L 3713 1625 
L 3713 1100 
L 3047 1100 
L 3047 0 
L 2419 0 
L 2419 1100 
L 313 1100 
L 313 1709 
L 2253 4666 
z
" id="DejaVuSans-34" transform="scale(0.015625)"/>
       </defs>
       <use xlink:href="#DejaVuSans-34"/>
       <use x="63.623047" xlink:href="#DejaVuSans-30"/>
       <use x="127.246094" xlink:href="#DejaVuSans-30"/>
      </g>
     </g>
    </g>
    <g id="xtick_4">
     <g id="line2d_7">
      <path clip-path="url(#p502dbb73ba)" d="M 545.611797 1602 
L 545.611797 216 
" style="fill:none;stroke:#808080;stroke-linecap:square;stroke-width:1.5;"/>
     </g>
     <g id="line2d_8">
      <g>
       <use style="stroke:#000000;stroke-width:0.8;" x="545.611797" xlink:href="#m9518e1de23" y="1602"/>
      </g>
     </g>
     <g id="text_4">
      <!-- 600 -->
      <g transform="translate(530.341797 1621.1575)scale(0.16 -0.16)">
       <defs>
        <path d="M 2113 2584 
Q 1688 2584 1439 2293 
Q 1191 2003 1191 1497 
Q 1191 994 1439 701 
Q 1688 409 2113 409 
Q 2538 409 2786 701 
Q 3034 994 3034 1497 
Q 3034 2003 2786 2293 
Q 2538 2584 2113 2584 
z
M 3366 4563 
L 3366 3988 
Q 3128 4100 2886 4159 
Q 2644 4219 2406 4219 
Q 1781 4219 1451 3797 
Q 1122 3375 1075 2522 
Q 1259 2794 1537 2939 
Q 1816 3084 2150 3084 
Q 2853 3084 3261 2657 
Q 3669 2231 3669 1497 
Q 3669 778 3244 343 
Q 2819 -91 2113 -91 
Q 1303 -91 875 529 
Q 447 1150 447 2328 
Q 447 3434 972 4092 
Q 1497 4750 2381 4750 
Q 2619 4750 2861 4703 
Q 3103 4656 3366 4563 
z
" id="DejaVuSans-36" transform="scale(0.015625)"/>
       </defs>
       <use xlink:href="#DejaVuSans-36"/>
       <use x="63.623047" xlink:href="#DejaVuSans-30"/>
       <use x="127.246094" xlink:href="#DejaVuSans-30"/>
      </g>
     </g>
    </g>
    <g id="xtick_5">
     <g id="line2d_9">
      <path clip-path="url(#p502dbb73ba)" d="M 681.336941 1602 
L 681.336941 216 
" style="fill:none;stroke:#808080;stroke-linecap:square;stroke-width:1.5;"/>
     </g>
     <g id="line2d_10">
      <g>
       <use style="stroke:#000000;stroke-width:0.8;" x="681.336941" xlink:href="#m9518e1de23" y="1602"/>
      </g>
     </g>
     <g id="text_5">
      <!-- 800 -->
      <g transform="translate(666.066941 1621.1575)scale(0.16 -0.16)">
       <defs>
        <path d="M 2034 2216 
Q 1584 2216 1326 1975 
Q 1069 1734 1069 1313 
Q 1069 891 1326 650 
Q 1584 409 2034 409 
Q 2484 409 2743 651 
Q 3003 894 3003 1313 
Q 3003 1734 2745 1975 
Q 2488 2216 2034 2216 
z
M 1403 2484 
Q 997 2584 770 2862 
Q 544 3141 544 3541 
Q 544 4100 942 4425 
Q 1341 4750 2034 4750 
Q 2731 4750 3128 4425 
Q 3525 4100 3525 3541 
Q 3525 3141 3298 2862 
Q 3072 2584 2669 2484 
Q 3125 2378 3379 2068 
Q 3634 1759 3634 1313 
Q 3634 634 3220 271 
Q 2806 -91 2034 -91 
Q 1263 -91 848 271 
Q 434 634 434 1313 
Q 434 1759 690 2068 
Q 947 2378 1403 2484 
z
M 1172 3481 
Q 1172 3119 1398 2916 
Q 1625 2713 2034 2713 
Q 2441 2713 2670 2916 
Q 2900 3119 2900 3481 
Q 2900 3844 2670 4047 
Q 2441 4250 2034 4250 
Q 1625 4250 1398 4047 
Q 1172 3844 1172 3481 
z
" id="DejaVuSans-38" transform="scale(0.015625)"/>
       </defs>
       <use xlink:href="#DejaVuSans-38"/>
       <use x="63.623047" xlink:href="#DejaVuSans-30"/>
       <use x="127.246094" xlink:href="#DejaVuSans-30"/>
      </g>
     </g>
    </g>
    <g id="xtick_6">
     <g id="line2d_11">
      <path clip-path="url(#p502dbb73ba)" d="M 172.36765 1602 
L 172.36765 216 
" style="fill:none;stroke:#808080;stroke-dasharray:1.85,0.8;stroke-dashoffset:0;stroke-width:0.5;"/>
     </g>
     <g id="line2d_12">
      <defs>
       <path d="M 0 0 
L 0 2 
" id="m338dd88346" style="stroke:#000000;stroke-width:0.6;"/>
      </defs>
      <g>
       <use style="stroke:#000000;stroke-width:0.6;" x="172.36765" xlink:href="#m338dd88346" y="1602"/>
      </g>
     </g>
    </g>
    <g id="xtick_7">
     <g id="line2d_13">
      <path clip-path="url(#p502dbb73ba)" d="M 206.298936 1602 
L 206.298936 216 
" style="fill:none;stroke:#808080;stroke-dasharray:1.85,0.8;stroke-dashoffset:0;stroke-width:0.5;"/>
     </g>
     <g id="line2d_14">
      <g>
       <use style="stroke:#000000;stroke-width:0.6;" x="206.298936" xlink:href="#m338dd88346" y="1602"/>
      </g>
     </g>
    </g>
    <g id="xtick_8">
     <g id="line2d_15">
      <path clip-path="url(#p502dbb73ba)" d="M 240.230222 1602 
L 240.230222 216 
" style="fill:none;stroke:#808080;stroke-dasharray:1.85,0.8;stroke-dashoffset:0;stroke-width:0.5;"/>
     </g>
     <g id="line2d_16">
      <g>
       <use style="stroke:#000000;stroke-width:0.6;" x="240.230222" xlink:href="#m338dd88346" y="1602"/>
      </g>
     </g>
    </g>
    <g id="xtick_9">
     <g id="line2d_17">
      <path clip-path="url(#p502dbb73ba)" d="M 308.092794 1602 
L 308.092794 216 
" style="fill:none;stroke:#808080;stroke-dasharray:1.85,0.8;stroke-dashoffset:0;stroke-width:0.5;"/>
     </g>
     <g id="line2d_18">
      <g>
       <use style="stroke:#000000;stroke-width:0.6;" x="308.092794" xlink:href="#m338dd88346" y="1602"/>
      </g>
     </g>
    </g>
    <g id="xtick_10">
     <g id="line2d_19">
      <path clip-path="url(#p502dbb73ba)" d="M 342.02408 1602 
L 342.02408 216 
" style="fill:none;stroke:#808080;stroke-dasharray:1.85,0.8;stroke-dashoffset:0;stroke-width:0.5;"/>
     </g>
     <g id="line2d_20">
      <g>
       <use style="stroke:#000000;stroke-width:0.6;" x="342.02408" xlink:href="#m338dd88346" y="1602"/>
      </g>
     </g>
    </g>
    <g id="xtick_11">
     <g id="line2d_21">
      <path clip-path="url(#p502dbb73ba)" d="M 375.955366 1602 
L 375.955366 216 
" style="fill:none;stroke:#808080;stroke-dasharray:1.85,0.8;stroke-dashoffset:0;stroke-width:0.5;"/>
     </g>
     <g id="line2d_22">
      <g>
       <use style="stroke:#000000;stroke-width:0.6;" x="375.955366" xlink:href="#m338dd88346" y="1602"/>
      </g>
     </g>
    </g>
    <g id="xtick_12">
     <g id="line2d_23">
      <path clip-path="url(#p502dbb73ba)" d="M 443.817939 1602 
L 443.817939 216 
" style="fill:none;stroke:#808080;stroke-dasharray:1.85,0.8;stroke-dashoffset:0;stroke-width:0.5;"/>
     </g>
     <g id="line2d_24">
      <g>
       <use style="stroke:#000000;stroke-width:0.6;" x="443.817939" xlink:href="#m338dd88346" y="1602"/>
      </g>
     </g>
    </g>
    <g id="xtick_13">
     <g id="line2d_25">
      <path clip-path="url(#p502dbb73ba)" d="M 477.749225 1602 
L 477.749225 216 
" style="fill:none;stroke:#808080;stroke-dasharray:1.85,0.8;stroke-dashoffset:0;stroke-width:0.5;"/>
     </g>
     <g id="line2d_26">
      <g>
       <use style="stroke:#000000;stroke-width:0.6;" x="477.749225" xlink:href="#m338dd88346" y="1602"/>
      </g>
     </g>
    </g>
    <g id="xtick_14">
     <g id="line2d_27">
      <path clip-path="url(#p502dbb73ba)" d="M 511.680511 1602 
L 511.680511 216 
" style="fill:none;stroke:#808080;stroke-dasharray:1.85,0.8;stroke-dashoffset:0;stroke-width:0.5;"/>
     </g>
     <g id="line2d_28">
      <g>
       <use style="stroke:#000000;stroke-width:0.6;" x="511.680511" xlink:href="#m338dd88346" y="1602"/>
      </g>
     </g>
    </g>
    <g id="xtick_15">
     <g id="line2d_29">
      <path clip-path="url(#p502dbb73ba)" d="M 579.543083 1602 
L 579.543083 216 
" style="fill:none;stroke:#808080;stroke-dasharray:1.85,0.8;stroke-dashoffset:0;stroke-width:0.5;"/>
     </g>
     <g id="line2d_30">
      <g>
       <use style="stroke:#000000;stroke-width:0.6;" x="579.543083" xlink:href="#m338dd88346" y="1602"/>
      </g>
     </g>
    </g>
    <g id="xtick_16">
     <g id="line2d_31">
      <path clip-path="url(#p502dbb73ba)" d="M 613.474369 1602 
L 613.474369 216 
" style="fill:none;stroke:#808080;stroke-dasharray:1.85,0.8;stroke-dashoffset:0;stroke-width:0.5;"/>
     </g>
     <g id="line2d_32">
      <g>
       <use style="stroke:#000000;stroke-width:0.6;" x="613.474369" xlink:href="#m338dd88346" y="1602"/>
      </g>
     </g>
    </g>
    <g id="xtick_17">
     <g id="line2d_33">
      <path clip-path="url(#p502dbb73ba)" d="M 647.405655 1602 
L 647.405655 216 
" style="fill:none;stroke:#808080;stroke-dasharray:1.85,0.8;stroke-dashoffset:0;stroke-width:0.5;"/>
     </g>
     <g id="line2d_34">
      <g>
       <use style="stroke:#000000;stroke-width:0.6;" x="647.405655" xlink:href="#m338dd88346" y="1602"/>
      </g>
     </g>
    </g>
    <g id="xtick_18">
     <g id="line2d_35">
      <path clip-path="url(#p502dbb73ba)" d="M 715.268227 1602 
L 715.268227 216 
" style="fill:none;stroke:#808080;stroke-dasharray:1.85,0.8;stroke-dashoffset:0;stroke-width:0.5;"/>
     </g>
     <g id="line2d_36">
      <g>
       <use style="stroke:#000000;stroke-width:0.6;" x="715.268227" xlink:href="#m338dd88346" y="1602"/>
      </g>
     </g>
    </g>
    <g id="xtick_19">
     <g id="line2d_37">
      <path clip-path="url(#p502dbb73ba)" d="M 749.199514 1602 
L 749.199514 216 
" style="fill:none;stroke:#808080;stroke-dasharray:1.85,0.8;stroke-dashoffset:0;stroke-width:0.5;"/>
     </g>
     <g id="line2d_38">
      <g>
       <use style="stroke:#000000;stroke-width:0.6;" x="749.199514" xlink:href="#m338dd88346" y="1602"/>
      </g>
     </g>
    </g>
    <g id="text_6">
     <!-- t(с) -->
     <g transform="translate(434.189063 1636.083437)scale(0.1 -0.1)">
      <defs>
       <path d="M 1172 4494 
L 1172 3500 
L 2356 3500 
L 2356 3053 
L 1172 3053 
L 1172 1153 
Q 1172 725 1289 603 
Q 1406 481 1766 481 
L 2356 481 
L 2356 0 
L 1766 0 
Q 1100 0 847 248 
Q 594 497 594 1153 
L 594 3053 
L 172 3053 
L 172 3500 
L 594 3500 
L 594 4494 
L 1172 4494 
z
" id="DejaVuSans-74" transform="scale(0.015625)"/>
       <path d="M 1984 4856 
Q 1566 4138 1362 3434 
Q 1159 2731 1159 2009 
Q 1159 1288 1364 580 
Q 1569 -128 1984 -844 
L 1484 -844 
Q 1016 -109 783 600 
Q 550 1309 550 2009 
Q 550 2706 781 3412 
Q 1013 4119 1484 4856 
L 1984 4856 
z
" id="DejaVuSans-28" transform="scale(0.015625)"/>
       <path d="M 3122 3366 
L 3122 2828 
Q 2878 2963 2633 3030 
Q 2388 3097 2138 3097 
Q 1578 3097 1268 2742 
Q 959 2388 959 1747 
Q 959 1106 1268 751 
Q 1578 397 2138 397 
Q 2388 397 2633 464 
Q 2878 531 3122 666 
L 3122 134 
Q 2881 22 2623 -34 
Q 2366 -91 2075 -91 
Q 1284 -91 818 406 
Q 353 903 353 1747 
Q 353 2603 823 3093 
Q 1294 3584 2113 3584 
Q 2378 3584 2631 3529 
Q 2884 3475 3122 3366 
z
" id="DejaVuSans-441" transform="scale(0.015625)"/>
       <path d="M 513 4856 
L 1013 4856 
Q 1481 4119 1714 3412 
Q 1947 2706 1947 2009 
Q 1947 1309 1714 600 
Q 1481 -109 1013 -844 
L 513 -844 
Q 928 -128 1133 580 
Q 1338 1288 1338 2009 
Q 1338 2731 1133 3434 
Q 928 4138 513 4856 
z
" id="DejaVuSans-29" transform="scale(0.015625)"/>
      </defs>
      <use xlink:href="#DejaVuSans-74"/>
      <use x="39.208984" xlink:href="#DejaVuSans-28"/>
      <use x="78.222656" xlink:href="#DejaVuSans-441"/>
      <use x="133.203125" xlink:href="#DejaVuSans-29"/>
     </g>
    </g>
   </g>
   <g id="matplotlib.axis_2">
    <g id="ytick_1">
     <g id="line2d_39">
      <path clip-path="url(#p502dbb73ba)" d="M 108 1544.121951 
L 777.6 1544.121951 
" style="fill:none;stroke:#808080;stroke-linecap:square;stroke-width:1.5;"/>
     </g>
     <g id="line2d_40">
      <defs>
       <path d="M 0 0 
L -3.5 0 
" id="m2df38c741f" style="stroke:#000000;stroke-width:0.8;"/>
      </defs>
      <g>
       <use style="stroke:#000000;stroke-width:0.8;" x="108" xlink:href="#m2df38c741f" y="1544.121951"/>
      </g>
     </g>
     <g id="text_7">
      <!-- 0.0 -->
      <g transform="translate(75.555 1550.200701)scale(0.16 -0.16)">
       <defs>
        <path d="M 684 794 
L 1344 794 
L 1344 0 
L 684 0 
L 684 794 
z
" id="DejaVuSans-2e" transform="scale(0.015625)"/>
       </defs>
       <use xlink:href="#DejaVuSans-30"/>
       <use x="63.623047" xlink:href="#DejaVuSans-2e"/>
       <use x="95.410156" xlink:href="#DejaVuSans-30"/>
      </g>
     </g>
    </g>
    <g id="ytick_2">
     <g id="line2d_41">
      <path clip-path="url(#p502dbb73ba)" d="M 108 1345.452328 
L 777.6 1345.452328 
" style="fill:none;stroke:#808080;stroke-linecap:square;stroke-width:1.5;"/>
     </g>
     <g id="line2d_42">
      <g>
       <use style="stroke:#000000;stroke-width:0.8;" x="108" xlink:href="#m2df38c741f" y="1345.452328"/>
      </g>
     </g>
     <g id="text_8">
      <!-- 0.5 -->
      <g transform="translate(75.555 1351.531078)scale(0.16 -0.16)">
       <defs>
        <path d="M 691 4666 
L 3169 4666 
L 3169 4134 
L 1269 4134 
L 1269 2991 
Q 1406 3038 1543 3061 
Q 1681 3084 1819 3084 
Q 2600 3084 3056 2656 
Q 3513 2228 3513 1497 
Q 3513 744 3044 326 
Q 2575 -91 1722 -91 
Q 1428 -91 1123 -41 
Q 819 9 494 109 
L 494 744 
Q 775 591 1075 516 
Q 1375 441 1709 441 
Q 2250 441 2565 725 
Q 2881 1009 2881 1497 
Q 2881 1984 2565 2268 
Q 2250 2553 1709 2553 
Q 1456 2553 1204 2497 
Q 953 2441 691 2322 
L 691 4666 
z
" id="DejaVuSans-35" transform="scale(0.015625)"/>
       </defs>
       <use xlink:href="#DejaVuSans-30"/>
       <use x="63.623047" xlink:href="#DejaVuSans-2e"/>
       <use x="95.410156" xlink:href="#DejaVuSans-35"/>
      </g>
     </g>
    </g>
    <g id="ytick_3">
     <g id="line2d_43">
      <path clip-path="url(#p502dbb73ba)" d="M 108 1146.782705 
L 777.6 1146.782705 
" style="fill:none;stroke:#808080;stroke-linecap:square;stroke-width:1.5;"/>
     </g>
     <g id="line2d_44">
      <g>
       <use style="stroke:#000000;stroke-width:0.8;" x="108" xlink:href="#m2df38c741f" y="1146.782705"/>
      </g>
     </g>
     <g id="text_9">
      <!-- 1.0 -->
      <g transform="translate(75.555 1152.861455)scale(0.16 -0.16)">
       <defs>
        <path d="M 794 531 
L 1825 531 
L 1825 4091 
L 703 3866 
L 703 4441 
L 1819 4666 
L 2450 4666 
L 2450 531 
L 3481 531 
L 3481 0 
L 794 0 
L 794 531 
z
" id="DejaVuSans-31" transform="scale(0.015625)"/>
       </defs>
       <use xlink:href="#DejaVuSans-31"/>
       <use x="63.623047" xlink:href="#DejaVuSans-2e"/>
       <use x="95.410156" xlink:href="#DejaVuSans-30"/>
      </g>
     </g>
    </g>
    <g id="ytick_4">
     <g id="line2d_45">
      <path clip-path="url(#p502dbb73ba)" d="M 108 948.113082 
L 777.6 948.113082 
" style="fill:none;stroke:#808080;stroke-linecap:square;stroke-width:1.5;"/>
     </g>
     <g id="line2d_46">
      <g>
       <use style="stroke:#000000;stroke-width:0.8;" x="108" xlink:href="#m2df38c741f" y="948.113082"/>
      </g>
     </g>
     <g id="text_10">
      <!-- 1.5 -->
      <g transform="translate(75.555 954.191832)scale(0.16 -0.16)">
       <use xlink:href="#DejaVuSans-31"/>
       <use x="63.623047" xlink:href="#DejaVuSans-2e"/>
       <use x="95.410156" xlink:href="#DejaVuSans-35"/>
      </g>
     </g>
    </g>
    <g id="ytick_5">
     <g id="line2d_47">
      <path clip-path="url(#p502dbb73ba)" d="M 108 749.443459 
L 777.6 749.443459 
" style="fill:none;stroke:#808080;stroke-linecap:square;stroke-width:1.5;"/>
     </g>
     <g id="line2d_48">
      <g>
       <use style="stroke:#000000;stroke-width:0.8;" x="108" xlink:href="#m2df38c741f" y="749.443459"/>
      </g>
     </g>
     <g id="text_11">
      <!-- 2.0 -->
      <g transform="translate(75.555 755.522209)scale(0.16 -0.16)">
       <use xlink:href="#DejaVuSans-32"/>
       <use x="63.623047" xlink:href="#DejaVuSans-2e"/>
       <use x="95.410156" xlink:href="#DejaVuSans-30"/>
      </g>
     </g>
    </g>
    <g id="ytick_6">
     <g id="line2d_49">
      <path clip-path="url(#p502dbb73ba)" d="M 108 550.773836 
L 777.6 550.773836 
" style="fill:none;stroke:#808080;stroke-linecap:square;stroke-width:1.5;"/>
     </g>
     <g id="line2d_50">
      <g>
       <use style="stroke:#000000;stroke-width:0.8;" x="108" xlink:href="#m2df38c741f" y="550.773836"/>
      </g>
     </g>
     <g id="text_12">
      <!-- 2.5 -->
      <g transform="translate(75.555 556.852586)scale(0.16 -0.16)">
       <use xlink:href="#DejaVuSans-32"/>
       <use x="63.623047" xlink:href="#DejaVuSans-2e"/>
       <use x="95.410156" xlink:href="#DejaVuSans-35"/>
      </g>
     </g>
    </g>
    <g id="ytick_7">
     <g id="line2d_51">
      <path clip-path="url(#p502dbb73ba)" d="M 108 352.104213 
L 777.6 352.104213 
" style="fill:none;stroke:#808080;stroke-linecap:square;stroke-width:1.5;"/>
     </g>
     <g id="line2d_52">
      <g>
       <use style="stroke:#000000;stroke-width:0.8;" x="108" xlink:href="#m2df38c741f" y="352.104213"/>
      </g>
     </g>
     <g id="text_13">
      <!-- 3.0 -->
      <g transform="translate(75.555 358.182963)scale(0.16 -0.16)">
       <defs>
        <path d="M 2597 2516 
Q 3050 2419 3304 2112 
Q 3559 1806 3559 1356 
Q 3559 666 3084 287 
Q 2609 -91 1734 -91 
Q 1441 -91 1130 -33 
Q 819 25 488 141 
L 488 750 
Q 750 597 1062 519 
Q 1375 441 1716 441 
Q 2309 441 2620 675 
Q 2931 909 2931 1356 
Q 2931 1769 2642 2001 
Q 2353 2234 1838 2234 
L 1294 2234 
L 1294 2753 
L 1863 2753 
Q 2328 2753 2575 2939 
Q 2822 3125 2822 3475 
Q 2822 3834 2567 4026 
Q 2313 4219 1838 4219 
Q 1578 4219 1281 4162 
Q 984 4106 628 3988 
L 628 4550 
Q 988 4650 1302 4700 
Q 1616 4750 1894 4750 
Q 2613 4750 3031 4423 
Q 3450 4097 3450 3541 
Q 3450 3153 3228 2886 
Q 3006 2619 2597 2516 
z
" id="DejaVuSans-33" transform="scale(0.015625)"/>
       </defs>
       <use xlink:href="#DejaVuSans-33"/>
       <use x="63.623047" xlink:href="#DejaVuSans-2e"/>
       <use x="95.410156" xlink:href="#DejaVuSans-30"/>
      </g>
     </g>
    </g>
    <g id="ytick_8">
     <g id="line2d_53">
      <path clip-path="url(#p502dbb73ba)" d="M 108 1583.855876 
L 777.6 1583.855876 
" style="fill:none;stroke:#808080;stroke-dasharray:1.85,0.8;stroke-dashoffset:0;stroke-width:0.5;"/>
     </g>
     <g id="line2d_54">
      <defs>
       <path d="M 0 0 
L -2 0 
" id="m661550325f" style="stroke:#000000;stroke-width:0.6;"/>
      </defs>
      <g>
       <use style="stroke:#000000;stroke-width:0.6;" x="108" xlink:href="#m661550325f" y="1583.855876"/>
      </g>
     </g>
    </g>
    <g id="ytick_9">
     <g id="line2d_55">
      <path clip-path="url(#p502dbb73ba)" d="M 108 1504.388027 
L 777.6 1504.388027 
" style="fill:none;stroke:#808080;stroke-dasharray:1.85,0.8;stroke-dashoffset:0;stroke-width:0.5;"/>
     </g>
     <g id="line2d_56">
      <g>
       <use style="stroke:#000000;stroke-width:0.6;" x="108" xlink:href="#m661550325f" y="1504.388027"/>
      </g>
     </g>
    </g>
    <g id="ytick_10">
     <g id="line2d_57">
      <path clip-path="url(#p502dbb73ba)" d="M 108 1464.654102 
L 777.6 1464.654102 
" style="fill:none;stroke:#808080;stroke-dasharray:1.85,0.8;stroke-dashoffset:0;stroke-width:0.5;"/>
     </g>
     <g id="line2d_58">
      <g>
       <use style="stroke:#000000;stroke-width:0.6;" x="108" xlink:href="#m661550325f" y="1464.654102"/>
      </g>
     </g>
    </g>
    <g id="ytick_11">
     <g id="line2d_59">
      <path clip-path="url(#p502dbb73ba)" d="M 108 1424.920177 
L 777.6 1424.920177 
" style="fill:none;stroke:#808080;stroke-dasharray:1.85,0.8;stroke-dashoffset:0;stroke-width:0.5;"/>
     </g>
     <g id="line2d_60">
      <g>
       <use style="stroke:#000000;stroke-width:0.6;" x="108" xlink:href="#m661550325f" y="1424.920177"/>
      </g>
     </g>
    </g>
    <g id="ytick_12">
     <g id="line2d_61">
      <path clip-path="url(#p502dbb73ba)" d="M 108 1385.186253 
L 777.6 1385.186253 
" style="fill:none;stroke:#808080;stroke-dasharray:1.85,0.8;stroke-dashoffset:0;stroke-width:0.5;"/>
     </g>
     <g id="line2d_62">
      <g>
       <use style="stroke:#000000;stroke-width:0.6;" x="108" xlink:href="#m661550325f" y="1385.186253"/>
      </g>
     </g>
    </g>
    <g id="ytick_13">
     <g id="line2d_63">
      <path clip-path="url(#p502dbb73ba)" d="M 108 1305.718404 
L 777.6 1305.718404 
" style="fill:none;stroke:#808080;stroke-dasharray:1.85,0.8;stroke-dashoffset:0;stroke-width:0.5;"/>
     </g>
     <g id="line2d_64">
      <g>
       <use style="stroke:#000000;stroke-width:0.6;" x="108" xlink:href="#m661550325f" y="1305.718404"/>
      </g>
     </g>
    </g>
    <g id="ytick_14">
     <g id="line2d_65">
      <path clip-path="url(#p502dbb73ba)" d="M 108 1265.984479 
L 777.6 1265.984479 
" style="fill:none;stroke:#808080;stroke-dasharray:1.85,0.8;stroke-dashoffset:0;stroke-width:0.5;"/>
     </g>
     <g id="line2d_66">
      <g>
       <use style="stroke:#000000;stroke-width:0.6;" x="108" xlink:href="#m661550325f" y="1265.984479"/>
      </g>
     </g>
    </g>
    <g id="ytick_15">
     <g id="line2d_67">
      <path clip-path="url(#p502dbb73ba)" d="M 108 1226.250554 
L 777.6 1226.250554 
" style="fill:none;stroke:#808080;stroke-dasharray:1.85,0.8;stroke-dashoffset:0;stroke-width:0.5;"/>
     </g>
     <g id="line2d_68">
      <g>
       <use style="stroke:#000000;stroke-width:0.6;" x="108" xlink:href="#m661550325f" y="1226.250554"/>
      </g>
     </g>
    </g>
    <g id="ytick_16">
     <g id="line2d_69">
      <path clip-path="url(#p502dbb73ba)" d="M 108 1186.51663 
L 777.6 1186.51663 
" style="fill:none;stroke:#808080;stroke-dasharray:1.85,0.8;stroke-dashoffset:0;stroke-width:0.5;"/>
     </g>
     <g id="line2d_70">
      <g>
       <use style="stroke:#000000;stroke-width:0.6;" x="108" xlink:href="#m661550325f" y="1186.51663"/>
      </g>
     </g>
    </g>
    <g id="ytick_17">
     <g id="line2d_71">
      <path clip-path="url(#p502dbb73ba)" d="M 108 1107.04878 
L 777.6 1107.04878 
" style="fill:none;stroke:#808080;stroke-dasharray:1.85,0.8;stroke-dashoffset:0;stroke-width:0.5;"/>
     </g>
     <g id="line2d_72">
      <g>
       <use style="stroke:#000000;stroke-width:0.6;" x="108" xlink:href="#m661550325f" y="1107.04878"/>
      </g>
     </g>
    </g>
    <g id="ytick_18">
     <g id="line2d_73">
      <path clip-path="url(#p502dbb73ba)" d="M 108 1067.314856 
L 777.6 1067.314856 
" style="fill:none;stroke:#808080;stroke-dasharray:1.85,0.8;stroke-dashoffset:0;stroke-width:0.5;"/>
     </g>
     <g id="line2d_74">
      <g>
       <use style="stroke:#000000;stroke-width:0.6;" x="108" xlink:href="#m661550325f" y="1067.314856"/>
      </g>
     </g>
    </g>
    <g id="ytick_19">
     <g id="line2d_75">
      <path clip-path="url(#p502dbb73ba)" d="M 108 1027.580931 
L 777.6 1027.580931 
" style="fill:none;stroke:#808080;stroke-dasharray:1.85,0.8;stroke-dashoffset:0;stroke-width:0.5;"/>
     </g>
     <g id="line2d_76">
      <g>
       <use style="stroke:#000000;stroke-width:0.6;" x="108" xlink:href="#m661550325f" y="1027.580931"/>
      </g>
     </g>
    </g>
    <g id="ytick_20">
     <g id="line2d_77">
      <path clip-path="url(#p502dbb73ba)" d="M 108 987.847007 
L 777.6 987.847007 
" style="fill:none;stroke:#808080;stroke-dasharray:1.85,0.8;stroke-dashoffset:0;stroke-width:0.5;"/>
     </g>
     <g id="line2d_78">
      <g>
       <use style="stroke:#000000;stroke-width:0.6;" x="108" xlink:href="#m661550325f" y="987.847007"/>
      </g>
     </g>
    </g>
    <g id="ytick_21">
     <g id="line2d_79">
      <path clip-path="url(#p502dbb73ba)" d="M 108 908.379157 
L 777.6 908.379157 
" style="fill:none;stroke:#808080;stroke-dasharray:1.85,0.8;stroke-dashoffset:0;stroke-width:0.5;"/>
     </g>
     <g id="line2d_80">
      <g>
       <use style="stroke:#000000;stroke-width:0.6;" x="108" xlink:href="#m661550325f" y="908.379157"/>
      </g>
     </g>
    </g>
    <g id="ytick_22">
     <g id="line2d_81">
      <path clip-path="url(#p502dbb73ba)" d="M 108 868.645233 
L 777.6 868.645233 
" style="fill:none;stroke:#808080;stroke-dasharray:1.85,0.8;stroke-dashoffset:0;stroke-width:0.5;"/>
     </g>
     <g id="line2d_82">
      <g>
       <use style="stroke:#000000;stroke-width:0.6;" x="108" xlink:href="#m661550325f" y="868.645233"/>
      </g>
     </g>
    </g>
    <g id="ytick_23">
     <g id="line2d_83">
      <path clip-path="url(#p502dbb73ba)" d="M 108 828.911308 
L 777.6 828.911308 
" style="fill:none;stroke:#808080;stroke-dasharray:1.85,0.8;stroke-dashoffset:0;stroke-width:0.5;"/>
     </g>
     <g id="line2d_84">
      <g>
       <use style="stroke:#000000;stroke-width:0.6;" x="108" xlink:href="#m661550325f" y="828.911308"/>
      </g>
     </g>
    </g>
    <g id="ytick_24">
     <g id="line2d_85">
      <path clip-path="url(#p502dbb73ba)" d="M 108 789.177384 
L 777.6 789.177384 
" style="fill:none;stroke:#808080;stroke-dasharray:1.85,0.8;stroke-dashoffset:0;stroke-width:0.5;"/>
     </g>
     <g id="line2d_86">
      <g>
       <use style="stroke:#000000;stroke-width:0.6;" x="108" xlink:href="#m661550325f" y="789.177384"/>
      </g>
     </g>
    </g>
    <g id="ytick_25">
     <g id="line2d_87">
      <path clip-path="url(#p502dbb73ba)" d="M 108 709.709534 
L 777.6 709.709534 
" style="fill:none;stroke:#808080;stroke-dasharray:1.85,0.8;stroke-dashoffset:0;stroke-width:0.5;"/>
     </g>
     <g id="line2d_88">
      <g>
       <use style="stroke:#000000;stroke-width:0.6;" x="108" xlink:href="#m661550325f" y="709.709534"/>
      </g>
     </g>
    </g>
    <g id="ytick_26">
     <g id="line2d_89">
      <path clip-path="url(#p502dbb73ba)" d="M 108 669.97561 
L 777.6 669.97561 
" style="fill:none;stroke:#808080;stroke-dasharray:1.85,0.8;stroke-dashoffset:0;stroke-width:0.5;"/>
     </g>
     <g id="line2d_90">
      <g>
       <use style="stroke:#000000;stroke-width:0.6;" x="108" xlink:href="#m661550325f" y="669.97561"/>
      </g>
     </g>
    </g>
    <g id="ytick_27">
     <g id="line2d_91">
      <path clip-path="url(#p502dbb73ba)" d="M 108 630.241685 
L 777.6 630.241685 
" style="fill:none;stroke:#808080;stroke-dasharray:1.85,0.8;stroke-dashoffset:0;stroke-width:0.5;"/>
     </g>
     <g id="line2d_92">
      <g>
       <use style="stroke:#000000;stroke-width:0.6;" x="108" xlink:href="#m661550325f" y="630.241685"/>
      </g>
     </g>
    </g>
    <g id="ytick_28">
     <g id="line2d_93">
      <path clip-path="url(#p502dbb73ba)" d="M 108 590.507761 
L 777.6 590.507761 
" style="fill:none;stroke:#808080;stroke-dasharray:1.85,0.8;stroke-dashoffset:0;stroke-width:0.5;"/>
     </g>
     <g id="line2d_94">
      <g>
       <use style="stroke:#000000;stroke-width:0.6;" x="108" xlink:href="#m661550325f" y="590.507761"/>
      </g>
     </g>
    </g>
    <g id="ytick_29">
     <g id="line2d_95">
      <path clip-path="url(#p502dbb73ba)" d="M 108 511.039911 
L 777.6 511.039911 
" style="fill:none;stroke:#808080;stroke-dasharray:1.85,0.8;stroke-dashoffset:0;stroke-width:0.5;"/>
     </g>
     <g id="line2d_96">
      <g>
       <use style="stroke:#000000;stroke-width:0.6;" x="108" xlink:href="#m661550325f" y="511.039911"/>
      </g>
     </g>
    </g>
    <g id="ytick_30">
     <g id="line2d_97">
      <path clip-path="url(#p502dbb73ba)" d="M 108 471.305987 
L 777.6 471.305987 
" style="fill:none;stroke:#808080;stroke-dasharray:1.85,0.8;stroke-dashoffset:0;stroke-width:0.5;"/>
     </g>
     <g id="line2d_98">
      <g>
       <use style="stroke:#000000;stroke-width:0.6;" x="108" xlink:href="#m661550325f" y="471.305987"/>
      </g>
     </g>
    </g>
    <g id="ytick_31">
     <g id="line2d_99">
      <path clip-path="url(#p502dbb73ba)" d="M 108 431.572062 
L 777.6 431.572062 
" style="fill:none;stroke:#808080;stroke-dasharray:1.85,0.8;stroke-dashoffset:0;stroke-width:0.5;"/>
     </g>
     <g id="line2d_100">
      <g>
       <use style="stroke:#000000;stroke-width:0.6;" x="108" xlink:href="#m661550325f" y="431.572062"/>
      </g>
     </g>
    </g>
    <g id="ytick_32">
     <g id="line2d_101">
      <path clip-path="url(#p502dbb73ba)" d="M 108 391.838137 
L 777.6 391.838137 
" style="fill:none;stroke:#808080;stroke-dasharray:1.85,0.8;stroke-dashoffset:0;stroke-width:0.5;"/>
     </g>
     <g id="line2d_102">
      <g>
       <use style="stroke:#000000;stroke-width:0.6;" x="108" xlink:href="#m661550325f" y="391.838137"/>
      </g>
     </g>
    </g>
    <g id="ytick_33">
     <g id="line2d_103">
      <path clip-path="url(#p502dbb73ba)" d="M 108 312.370288 
L 777.6 312.370288 
" style="fill:none;stroke:#808080;stroke-dasharray:1.85,0.8;stroke-dashoffset:0;stroke-width:0.5;"/>
     </g>
     <g id="line2d_104">
      <g>
       <use style="stroke:#000000;stroke-width:0.6;" x="108" xlink:href="#m661550325f" y="312.370288"/>
      </g>
     </g>
    </g>
    <g id="ytick_34">
     <g id="line2d_105">
      <path clip-path="url(#p502dbb73ba)" d="M 108 272.636364 
L 777.6 272.636364 
" style="fill:none;stroke:#808080;stroke-dasharray:1.85,0.8;stroke-dashoffset:0;stroke-width:0.5;"/>
     </g>
     <g id="line2d_106">
      <g>
       <use style="stroke:#000000;stroke-width:0.6;" x="108" xlink:href="#m661550325f" y="272.636364"/>
      </g>
     </g>
    </g>
    <g id="ytick_35">
     <g id="line2d_107">
      <path clip-path="url(#p502dbb73ba)" d="M 108 232.902439 
L 777.6 232.902439 
" style="fill:none;stroke:#808080;stroke-dasharray:1.85,0.8;stroke-dashoffset:0;stroke-width:0.5;"/>
     </g>
     <g id="line2d_108">
      <g>
       <use style="stroke:#000000;stroke-width:0.6;" x="108" xlink:href="#m661550325f" y="232.902439"/>
      </g>
     </g>
    </g>
    <g id="text_14">
     <!-- U(B) -->
     <g transform="translate(69.475313 919.991406)rotate(-90)scale(0.1 -0.1)">
      <defs>
       <path d="M 556 4666 
L 1191 4666 
L 1191 1831 
Q 1191 1081 1462 751 
Q 1734 422 2344 422 
Q 2950 422 3222 751 
Q 3494 1081 3494 1831 
L 3494 4666 
L 4128 4666 
L 4128 1753 
Q 4128 841 3676 375 
Q 3225 -91 2344 -91 
Q 1459 -91 1007 375 
Q 556 841 556 1753 
L 556 4666 
z
" id="DejaVuSans-55" transform="scale(0.015625)"/>
       <path d="M 1259 2228 
L 1259 519 
L 2272 519 
Q 2781 519 3026 730 
Q 3272 941 3272 1375 
Q 3272 1813 3026 2020 
Q 2781 2228 2272 2228 
L 1259 2228 
z
M 1259 4147 
L 1259 2741 
L 2194 2741 
Q 2656 2741 2882 2914 
Q 3109 3088 3109 3444 
Q 3109 3797 2882 3972 
Q 2656 4147 2194 4147 
L 1259 4147 
z
M 628 4666 
L 2241 4666 
Q 2963 4666 3353 4366 
Q 3744 4066 3744 3513 
Q 3744 3084 3544 2831 
Q 3344 2578 2956 2516 
Q 3422 2416 3680 2098 
Q 3938 1781 3938 1306 
Q 3938 681 3513 340 
Q 3088 0 2303 0 
L 628 0 
L 628 4666 
z
" id="DejaVuSans-42" transform="scale(0.015625)"/>
      </defs>
      <use xlink:href="#DejaVuSans-55"/>
      <use x="73.193359" xlink:href="#DejaVuSans-28"/>
      <use x="112.207031" xlink:href="#DejaVuSans-42"/>
      <use x="180.810547" xlink:href="#DejaVuSans-29"/>
     </g>
    </g>
   </g>
   <g id="line2d_109">
    <path clip-path="url(#p502dbb73ba)" d="M 138.436364 1539 
L 139.114989 1518.512195 
L 141.150867 1487.780488 
L 141.829492 1467.292683 
L 143.186744 1446.804878 
L 143.865369 1426.317073 
L 144.543995 1426.317073 
L 145.222621 1405.829268 
L 145.901247 1405.829268 
L 146.579872 1385.341463 
L 147.258498 1385.341463 
L 147.937124 1354.609756 
L 156.759258 1221.439024 
L 157.437884 1221.439024 
L 158.11651 1200.95122 
L 160.831012 1159.97561 
L 161.509638 1159.97561 
L 162.188264 1139.487805 
L 162.86689 1139.487805 
L 168.295895 1057.536585 
L 168.974521 1057.536585 
L 171.689024 1016.560976 
L 172.36765 1016.560976 
L 175.082153 975.585366 
L 175.760778 975.585366 
L 177.11803 955.097561 
L 177.796656 955.097561 
L 179.153907 934.609756 
L 179.832533 934.609756 
L 181.189784 914.121951 
L 181.86841 914.121951 
L 183.225661 893.634146 
L 184.582913 893.634146 
L 185.261538 873.146341 
L 185.940164 873.146341 
L 186.61879 862.902439 
L 187.297416 862.902439 
L 188.654667 842.414634 
L 189.333293 842.414634 
L 190.011919 832.170732 
L 190.690544 832.170732 
L 192.047796 811.682927 
L 193.405047 811.682927 
L 194.762299 791.195122 
L 196.11955 791.195122 
L 197.476801 770.707317 
L 198.155427 770.707317 
L 198.834053 760.463415 
L 199.512679 760.463415 
L 200.191304 750.219512 
L 200.86993 750.219512 
L 201.548556 739.97561 
L 202.227182 739.97561 
L 202.905807 729.731707 
L 204.941684 729.731707 
L 205.62031 709.243902 
L 206.977562 709.243902 
L 207.656187 699 
L 208.334813 699 
L 209.013439 688.756098 
L 210.37069 688.756098 
L 211.049316 678.512195 
L 211.727942 678.512195 
L 212.406567 668.268293 
L 213.085193 668.268293 
L 213.763819 658.02439 
L 215.799696 658.02439 
L 217.156947 637.536585 
L 218.514199 637.536585 
L 219.192825 627.292683 
L 220.550076 627.292683 
L 221.228702 617.04878 
L 221.907327 617.04878 
L 222.585953 606.804878 
L 224.62183 606.804878 
L 225.300456 596.560976 
L 225.979082 596.560976 
L 226.657708 586.317073 
L 228.014959 586.317073 
L 228.693585 576.073171 
L 230.729462 576.073171 
L 232.086713 555.585366 
L 236.158468 555.585366 
L 237.515719 535.097561 
L 240.230222 535.097561 
L 240.908848 524.853659 
L 242.944725 524.853659 
L 243.623351 514.609756 
L 244.980602 514.609756 
L 245.659228 504.365854 
L 247.016479 504.365854 
L 247.695105 494.121951 
L 250.409608 494.121951 
L 251.088234 483.878049 
L 253.802736 483.878049 
L 254.481362 473.634146 
L 257.195865 473.634146 
L 257.874491 463.390244 
L 260.588994 463.390244 
L 261.267619 453.146341 
L 262.624871 453.146341 
L 263.303497 442.902439 
L 263.982122 453.146341 
L 264.660748 442.902439 
L 266.696625 442.902439 
L 267.375251 432.658537 
L 272.125631 432.658537 
L 272.804257 422.414634 
L 276.197385 422.414634 
L 276.876011 412.170732 
L 280.26914 412.170732 
L 280.947765 401.926829 
L 283.662268 401.926829 
L 284.340894 391.682927 
L 291.805777 391.682927 
L 292.484403 381.439024 
L 297.913408 381.439024 
L 298.592034 371.195122 
L 299.27066 381.439024 
L 299.949285 371.195122 
L 303.342414 371.195122 
L 304.02104 360.95122 
L 304.699666 371.195122 
L 305.378291 360.95122 
L 311.485923 360.95122 
L 312.164548 350.707317 
L 318.27218 350.707317 
L 318.950806 340.463415 
L 325.058437 340.463415 
L 325.737063 330.219512 
L 326.415689 340.463415 
L 327.094314 340.463415 
L 327.77294 330.219512 
L 333.880572 330.219512 
L 334.559197 319.97561 
L 335.237823 330.219512 
L 335.916449 330.219512 
L 336.595074 319.97561 
L 337.2737 330.219512 
L 337.952326 330.219512 
L 338.630952 319.97561 
L 344.059957 319.97561 
L 344.738583 309.731707 
L 345.417209 319.97561 
L 346.095835 319.97561 
L 346.77446 309.731707 
L 347.453086 309.731707 
L 348.131712 319.97561 
L 350.167589 319.97561 
L 350.846215 309.731707 
L 363.740103 309.731707 
L 364.418729 299.487805 
L 365.097355 309.731707 
L 365.775981 299.487805 
L 380.705746 299.487805 
L 381.384372 289.243902 
L 382.062998 289.243902 
L 382.741624 299.487805 
L 383.420249 299.487805 
L 384.098875 289.243902 
L 384.777501 289.243902 
L 385.456126 299.487805 
L 386.134752 289.243902 
L 397.671389 289.243902 
L 398.350015 279 
L 399.028641 299.487805 
L 399.707267 309.731707 
L 400.385892 309.731707 
L 401.064518 330.219512 
L 402.42177 350.707317 
L 403.100395 371.195122 
L 403.779021 371.195122 
L 404.457647 391.682927 
L 405.136272 391.682927 
L 405.814898 412.170732 
L 407.17215 432.658537 
L 407.850775 432.658537 
L 408.529401 453.146341 
L 409.208027 453.146341 
L 415.994284 555.585366 
L 416.67291 555.585366 
L 420.066038 606.804878 
L 420.744664 606.804878 
L 421.42329 627.292683 
L 422.101915 627.292683 
L 422.780541 637.536585 
L 423.459167 637.536585 
L 426.852296 688.756098 
L 427.530921 688.756098 
L 430.245424 729.731707 
L 430.92405 729.731707 
L 432.281301 750.219512 
L 432.959927 750.219512 
L 433.638553 760.463415 
L 434.317178 760.463415 
L 436.353056 791.195122 
L 437.031681 791.195122 
L 437.710307 801.439024 
L 438.388933 801.439024 
L 439.746184 821.926829 
L 440.42481 821.926829 
L 441.782061 842.414634 
L 442.460687 842.414634 
L 443.139313 852.658537 
L 443.817939 852.658537 
L 444.496564 862.902439 
L 445.17519 862.902439 
L 445.853816 873.146341 
L 446.532441 873.146341 
L 447.211067 883.390244 
L 447.889693 883.390244 
L 448.568319 893.634146 
L 449.246944 893.634146 
L 449.92557 903.878049 
L 450.604196 903.878049 
L 451.961447 924.365854 
L 453.318699 924.365854 
L 453.997324 934.609756 
L 454.67595 934.609756 
L 455.354576 944.853659 
L 456.033202 944.853659 
L 457.390453 965.341463 
L 458.747704 965.341463 
L 459.42633 975.585366 
L 460.104956 975.585366 
L 460.783582 985.829268 
L 461.462207 985.829268 
L 462.140833 996.073171 
L 462.819459 996.073171 
L 463.498085 1006.317073 
L 464.855336 1006.317073 
L 465.533962 1016.560976 
L 466.212587 1016.560976 
L 466.891213 1026.804878 
L 467.569839 1026.804878 
L 468.248465 1037.04878 
L 468.92709 1037.04878 
L 469.605716 1047.292683 
L 471.641593 1047.292683 
L 472.998845 1067.780488 
L 474.356096 1067.780488 
L 475.034722 1078.02439 
L 475.713348 1078.02439 
L 476.391973 1088.268293 
L 478.42785 1088.268293 
L 479.106476 1098.512195 
L 479.785102 1098.512195 
L 480.463728 1108.756098 
L 481.820979 1108.756098 
L 482.499605 1119 
L 483.17823 1119 
L 483.856856 1129.243902 
L 485.214108 1129.243902 
L 485.892733 1139.487805 
L 487.928611 1139.487805 
L 488.607236 1149.731707 
L 489.964488 1149.731707 
L 490.643113 1159.97561 
L 492.000365 1159.97561 
L 492.678991 1170.219512 
L 494.714868 1170.219512 
L 495.393493 1180.463415 
L 496.072119 1180.463415 
L 496.750745 1190.707317 
L 498.786622 1190.707317 
L 499.465248 1200.95122 
L 500.822499 1200.95122 
L 501.501125 1211.195122 
L 502.179751 1211.195122 
L 502.858376 1221.439024 
L 506.930131 1221.439024 
L 507.608756 1231.682927 
L 508.966008 1231.682927 
L 509.644634 1241.926829 
L 511.001885 1241.926829 
L 511.680511 1252.170732 
L 514.395014 1252.170732 
L 515.073639 1262.414634 
L 517.109517 1262.414634 
L 517.788142 1272.658537 
L 519.145394 1272.658537 
L 519.824019 1282.902439 
L 522.538522 1282.902439 
L 523.217148 1293.146341 
L 525.931651 1293.146341 
L 526.610277 1303.390244 
L 527.288902 1293.146341 
L 527.967528 1303.390244 
L 529.32478 1303.390244 
L 530.003405 1313.634146 
L 532.717908 1313.634146 
L 533.396534 1323.878049 
L 536.111037 1323.878049 
L 536.789663 1334.121951 
L 539.504165 1334.121951 
L 540.182791 1344.365854 
L 544.254545 1344.365854 
L 544.933171 1354.609756 
L 547.647674 1354.609756 
L 548.3263 1364.853659 
L 551.040803 1364.853659 
L 551.719428 1375.097561 
L 552.398054 1364.853659 
L 553.07668 1375.097561 
L 555.112557 1375.097561 
L 555.791183 1385.341463 
L 562.57744 1385.341463 
L 563.256066 1395.585366 
L 568.006446 1395.585366 
L 568.685071 1405.829268 
L 572.0782 1405.829268 
L 572.756826 1416.073171 
L 578.864457 1416.073171 
L 579.543083 1426.317073 
L 586.32934 1426.317073 
L 587.007966 1436.560976 
L 592.436972 1436.560976 
L 593.115597 1446.804878 
L 593.794223 1436.560976 
L 594.472849 1446.804878 
L 601.937732 1446.804878 
L 602.616358 1457.04878 
L 608.723989 1457.04878 
L 609.402615 1467.292683 
L 620.260626 1467.292683 
L 620.939252 1477.536585 
L 631.797264 1477.536585 
L 632.475889 1487.780488 
L 633.154515 1477.536585 
L 633.833141 1487.780488 
L 644.691152 1487.780488 
L 645.369778 1498.02439 
L 659.620918 1498.02439 
L 660.299544 1508.268293 
L 660.97817 1498.02439 
L 663.014047 1498.02439 
L 663.692673 1508.268293 
L 664.371298 1508.268293 
L 665.049924 1498.02439 
L 665.72855 1508.268293 
L 679.301064 1508.268293 
L 679.97969 1518.512195 
L 680.658316 1508.268293 
L 686.087321 1508.268293 
L 686.765947 1518.512195 
L 688.123199 1518.512195 
L 688.801824 1508.268293 
L 689.48045 1518.512195 
L 707.803344 1518.512195 
L 708.48197 1528.756098 
L 709.160596 1518.512195 
L 710.517847 1518.512195 
L 711.196473 1528.756098 
L 746.485011 1528.756098 
L 747.163636 1539 
L 747.163636 1539 
" style="fill:none;stroke:#1f77b4;stroke-linecap:square;stroke-width:1.5;"/>
   </g>
   <g id="patch_3">
    <path d="M 108 1602 
L 108 216 
" style="fill:none;stroke:#000000;stroke-linecap:square;stroke-linejoin:miter;stroke-width:0.8;"/>
   </g>
   <g id="patch_4">
    <path d="M 777.6 1602 
L 777.6 216 
" style="fill:none;stroke:#000000;stroke-linecap:square;stroke-linejoin:miter;stroke-width:0.8;"/>
   </g>
   <g id="patch_5">
    <path d="M 108 1602 
L 777.6 1602 
" style="fill:none;stroke:#000000;stroke-linecap:square;stroke-linejoin:miter;stroke-width:0.8;"/>
   </g>
   <g id="patch_6">
    <path d="M 108 216 
L 777.6 216 
" style="fill:none;stroke:#000000;stroke-linecap:square;stroke-linejoin:miter;stroke-width:0.8;"/>
   </g>
   <g id="text_15">
    <g id="patch_7">
     <path d="M 542.611797 357.1839 
L 693.596172 357.1839 
L 693.596172 341.505775 
L 542.611797 341.505775 
z
" style="fill:#ff0000;stroke:#000000;stroke-linejoin:miter;"/>
    </g>
    <!-- Время разрядки =5.137922 -->
    <g style="fill:#808080;" transform="translate(545.611797 352.104213)scale(0.1 -0.1)">
     <defs>
      <path d="M 1259 2228 
L 1259 519 
L 2272 519 
Q 2781 519 3026 730 
Q 3272 941 3272 1375 
Q 3272 1813 3026 2020 
Q 2781 2228 2272 2228 
L 1259 2228 
z
M 1259 4147 
L 1259 2741 
L 2194 2741 
Q 2656 2741 2882 2914 
Q 3109 3088 3109 3444 
Q 3109 3797 2882 3972 
Q 2656 4147 2194 4147 
L 1259 4147 
z
M 628 4666 
L 2241 4666 
Q 2963 4666 3353 4366 
Q 3744 4066 3744 3513 
Q 3744 3084 3544 2831 
Q 3344 2578 2956 2516 
Q 3422 2416 3680 2098 
Q 3938 1781 3938 1306 
Q 3938 681 3513 340 
Q 3088 0 2303 0 
L 628 0 
L 628 4666 
z
" id="DejaVuSans-412" transform="scale(0.015625)"/>
      <path d="M 1159 525 
L 1159 -1331 
L 581 -1331 
L 581 3500 
L 1159 3500 
L 1159 2969 
Q 1341 3281 1617 3432 
Q 1894 3584 2278 3584 
Q 2916 3584 3314 3078 
Q 3713 2572 3713 1747 
Q 3713 922 3314 415 
Q 2916 -91 2278 -91 
Q 1894 -91 1617 61 
Q 1341 213 1159 525 
z
M 3116 1747 
Q 3116 2381 2855 2742 
Q 2594 3103 2138 3103 
Q 1681 3103 1420 2742 
Q 1159 2381 1159 1747 
Q 1159 1113 1420 752 
Q 1681 391 2138 391 
Q 2594 391 2855 752 
Q 3116 1113 3116 1747 
z
" id="DejaVuSans-440" transform="scale(0.015625)"/>
      <path d="M 3597 1894 
L 3597 1613 
L 953 1613 
Q 991 1019 1311 708 
Q 1631 397 2203 397 
Q 2534 397 2845 478 
Q 3156 559 3463 722 
L 3463 178 
Q 3153 47 2828 -22 
Q 2503 -91 2169 -91 
Q 1331 -91 842 396 
Q 353 884 353 1716 
Q 353 2575 817 3079 
Q 1281 3584 2069 3584 
Q 2775 3584 3186 3129 
Q 3597 2675 3597 1894 
z
M 3022 2063 
Q 3016 2534 2758 2815 
Q 2500 3097 2075 3097 
Q 1594 3097 1305 2825 
Q 1016 2553 972 2059 
L 3022 2063 
z
" id="DejaVuSans-435" transform="scale(0.015625)"/>
      <path d="M 581 3500 
L 1422 3500 
L 2416 1156 
L 3413 3500 
L 4247 3500 
L 4247 0 
L 3669 0 
L 3669 2950 
L 2703 672 
L 2128 672 
L 1159 2950 
L 1159 0 
L 581 0 
L 581 3500 
z
" id="DejaVuSans-43c" transform="scale(0.015625)"/>
      <path d="M 1181 2491 
Q 1181 2231 1381 2084 
Q 1581 1938 1953 1938 
L 2728 1938 
L 2728 3041 
L 1953 3041 
Q 1581 3041 1381 2897 
Q 1181 2753 1181 2491 
z
M 363 0 
L 1431 1534 
Q 1069 1616 828 1830 
Q 588 2044 588 2491 
Q 588 2997 923 3248 
Q 1259 3500 1938 3500 
L 3306 3500 
L 3306 0 
L 2728 0 
L 2728 1478 
L 2013 1478 
L 981 0 
L 363 0 
z
" id="DejaVuSans-44f" transform="scale(0.015625)"/>
      <path id="DejaVuSans-20" transform="scale(0.015625)"/>
      <path d="M 2194 1759 
Q 1497 1759 1228 1600 
Q 959 1441 959 1056 
Q 959 750 1161 570 
Q 1363 391 1709 391 
Q 2188 391 2477 730 
Q 2766 1069 2766 1631 
L 2766 1759 
L 2194 1759 
z
M 3341 1997 
L 3341 0 
L 2766 0 
L 2766 531 
Q 2569 213 2275 61 
Q 1981 -91 1556 -91 
Q 1019 -91 701 211 
Q 384 513 384 1019 
Q 384 1609 779 1909 
Q 1175 2209 1959 2209 
L 2766 2209 
L 2766 2266 
Q 2766 2663 2505 2880 
Q 2244 3097 1772 3097 
Q 1472 3097 1187 3025 
Q 903 2953 641 2809 
L 641 3341 
Q 956 3463 1253 3523 
Q 1550 3584 1831 3584 
Q 2591 3584 2966 3190 
Q 3341 2797 3341 1997 
z
" id="DejaVuSans-430" transform="scale(0.015625)"/>
      <path d="M 2206 1888 
Q 2594 1813 2809 1584 
Q 3025 1356 3025 1019 
Q 3025 478 2622 193 
Q 2219 -91 1475 -91 
Q 1225 -91 961 -47 
Q 697 -3 416 84 
L 416 619 
Q 638 503 903 445 
Q 1169 388 1459 388 
Q 1931 388 2195 563 
Q 2459 738 2459 1019 
Q 2459 1294 2225 1461 
Q 1991 1628 1563 1628 
L 1100 1628 
L 1100 2103 
L 1584 2103 
Q 1947 2103 2158 2242 
Q 2369 2381 2369 2600 
Q 2369 2800 2151 2944 
Q 1934 3088 1563 3088 
Q 1341 3088 1089 3047 
Q 838 3006 534 2916 
L 534 3438 
Q 841 3513 1106 3550 
Q 1372 3588 1609 3588 
Q 2222 3588 2576 3342 
Q 2931 3097 2931 2656 
Q 2931 2366 2743 2164 
Q 2556 1963 2206 1888 
z
" id="DejaVuSans-437" transform="scale(0.015625)"/>
      <path d="M 1384 459 
L 3053 459 
L 3053 3041 
L 1844 3041 
L 1844 2603 
Q 1844 1316 1475 628 
L 1384 459 
z
M 550 459 
Q 834 584 959 850 
Q 1266 1509 1266 2838 
L 1266 3500 
L 3631 3500 
L 3631 459 
L 4091 459 
L 4091 -884 
L 3631 -884 
L 3631 0 
L 794 0 
L 794 -884 
L 334 -884 
L 334 459 
L 550 459 
z
" id="DejaVuSans-434" transform="scale(0.015625)"/>
      <path d="M 581 3500 
L 1153 3500 
L 1153 1856 
L 2775 3500 
L 3481 3500 
L 2144 2147 
L 3653 0 
L 3009 0 
L 1769 1766 
L 1153 1141 
L 1153 0 
L 581 0 
L 581 3500 
z
" id="DejaVuSans-43a" transform="scale(0.015625)"/>
      <path d="M 3578 3500 
L 3578 0 
L 3006 0 
L 3006 2809 
L 1319 0 
L 581 0 
L 581 3500 
L 1153 3500 
L 1153 697 
L 2838 3500 
L 3578 3500 
z
" id="DejaVuSans-438" transform="scale(0.015625)"/>
      <path d="M 678 2906 
L 4684 2906 
L 4684 2381 
L 678 2381 
L 678 2906 
z
M 678 1631 
L 4684 1631 
L 4684 1100 
L 678 1100 
L 678 1631 
z
" id="DejaVuSans-3d" transform="scale(0.015625)"/>
      <path d="M 525 4666 
L 3525 4666 
L 3525 4397 
L 1831 0 
L 1172 0 
L 2766 4134 
L 525 4134 
L 525 4666 
z
" id="DejaVuSans-37" transform="scale(0.015625)"/>
      <path d="M 703 97 
L 703 672 
Q 941 559 1184 500 
Q 1428 441 1663 441 
Q 2288 441 2617 861 
Q 2947 1281 2994 2138 
Q 2813 1869 2534 1725 
Q 2256 1581 1919 1581 
Q 1219 1581 811 2004 
Q 403 2428 403 3163 
Q 403 3881 828 4315 
Q 1253 4750 1959 4750 
Q 2769 4750 3195 4129 
Q 3622 3509 3622 2328 
Q 3622 1225 3098 567 
Q 2575 -91 1691 -91 
Q 1453 -91 1209 -44 
Q 966 3 703 97 
z
M 1959 2075 
Q 2384 2075 2632 2365 
Q 2881 2656 2881 3163 
Q 2881 3666 2632 3958 
Q 2384 4250 1959 4250 
Q 1534 4250 1286 3958 
Q 1038 3666 1038 3163 
Q 1038 2656 1286 2365 
Q 1534 2075 1959 2075 
z
" id="DejaVuSans-39" transform="scale(0.015625)"/>
     </defs>
     <use xlink:href="#DejaVuSans-412"/>
     <use x="68.603516" xlink:href="#DejaVuSans-440"/>
     <use x="132.080078" xlink:href="#DejaVuSans-435"/>
     <use x="193.603516" xlink:href="#DejaVuSans-43c"/>
     <use x="269.042969" xlink:href="#DejaVuSans-44f"/>
     <use x="329.199219" xlink:href="#DejaVuSans-20"/>
     <use x="360.986328" xlink:href="#DejaVuSans-440"/>
     <use x="424.462891" xlink:href="#DejaVuSans-430"/>
     <use x="485.742188" xlink:href="#DejaVuSans-437"/>
     <use x="538.916016" xlink:href="#DejaVuSans-440"/>
     <use x="602.392578" xlink:href="#DejaVuSans-44f"/>
     <use x="662.548828" xlink:href="#DejaVuSans-434"/>
     <use x="731.689453" xlink:href="#DejaVuSans-43a"/>
     <use x="792.089844" xlink:href="#DejaVuSans-438"/>
     <use x="857.080078" xlink:href="#DejaVuSans-20"/>
     <use x="888.867188" xlink:href="#DejaVuSans-3d"/>
     <use x="972.65625" xlink:href="#DejaVuSans-35"/>
     <use x="1036.279297" xlink:href="#DejaVuSans-2e"/>
     <use x="1068.066406" xlink:href="#DejaVuSans-31"/>
     <use x="1131.689453" xlink:href="#DejaVuSans-33"/>
     <use x="1195.3125" xlink:href="#DejaVuSans-37"/>
     <use x="1258.935547" xlink:href="#DejaVuSans-39"/>
     <use x="1322.558594" xlink:href="#DejaVuSans-32"/>
     <use x="1386.181641" xlink:href="#DejaVuSans-32"/>
    </g>
   </g>
   <g id="text_16">
    <g id="patch_8">
     <path d="M 542.611797 436.65175 
L 693.596172 436.65175 
L 693.596172 420.973625 
L 542.611797 420.973625 
z
" style="fill:#0000ff;stroke:#000000;stroke-linejoin:miter;"/>
    </g>
    <!-- Время разрядки =6.895278 -->
    <g style="fill:#808080;" transform="translate(545.611797 431.572062)scale(0.1 -0.1)">
     <use xlink:href="#DejaVuSans-412"/>
     <use x="68.603516" xlink:href="#DejaVuSans-440"/>
     <use x="132.080078" xlink:href="#DejaVuSans-435"/>
     <use x="193.603516" xlink:href="#DejaVuSans-43c"/>
     <use x="269.042969" xlink:href="#DejaVuSans-44f"/>
     <use x="329.199219" xlink:href="#DejaVuSans-20"/>
     <use x="360.986328" xlink:href="#DejaVuSans-440"/>
     <use x="424.462891" xlink:href="#DejaVuSans-430"/>
     <use x="485.742188" xlink:href="#DejaVuSans-437"/>
     <use x="538.916016" xlink:href="#DejaVuSans-440"/>
     <use x="602.392578" xlink:href="#DejaVuSans-44f"/>
     <use x="662.548828" xlink:href="#DejaVuSans-434"/>
     <use x="731.689453" xlink:href="#DejaVuSans-43a"/>
     <use x="792.089844" xlink:href="#DejaVuSans-438"/>
     <use x="857.080078" xlink:href="#DejaVuSans-20"/>
     <use x="888.867188" xlink:href="#DejaVuSans-3d"/>
     <use x="972.65625" xlink:href="#DejaVuSans-36"/>
     <use x="1036.279297" xlink:href="#DejaVuSans-2e"/>
     <use x="1068.066406" xlink:href="#DejaVuSans-38"/>
     <use x="1131.689453" xlink:href="#DejaVuSans-39"/>
     <use x="1195.3125" xlink:href="#DejaVuSans-35"/>
     <use x="1258.935547" xlink:href="#DejaVuSans-32"/>
     <use x="1322.558594" xlink:href="#DejaVuSans-37"/>
     <use x="1386.181641" xlink:href="#DejaVuSans-38"/>
    </g>
   </g>
   <g id="text_17">
    <!-- График зависимости U(B) от t(с) -->
    <g transform="translate(340.29375 210)scale(0.12 -0.12)">
     <defs>
      <path d="M 628 0 
L 628 4666 
L 3531 4666 
L 3531 4134 
L 1259 4134 
L 1259 0 
L 628 0 
z
" id="DejaVuSans-413" transform="scale(0.015625)"/>
      <path d="M 947 1747 
Q 947 1013 1173 702 
Q 1400 391 1784 391 
Q 2091 391 2447 916 
L 2447 2578 
Q 2091 3103 1784 3103 
Q 1400 3103 1173 2792 
Q 947 2481 947 1747 
z
M 2447 -1331 
L 2447 447 
Q 2269 153 2064 31 
Q 1859 -91 1600 -91 
Q 1078 -91 714 392 
Q 350 875 350 1734 
Q 350 2594 714 3089 
Q 1078 3584 1600 3584 
Q 1859 3584 2064 3465 
Q 2269 3347 2447 3053 
L 2447 4666 
L 3025 4666 
L 3025 3053 
Q 3203 3347 3408 3465 
Q 3613 3584 3872 3584 
Q 4394 3584 4758 3089 
Q 5122 2594 5122 1734 
Q 5122 875 4758 392 
Q 4394 -91 3872 -91 
Q 3613 -91 3408 31 
Q 3203 153 3025 447 
L 3025 -1331 
L 2447 -1331 
z
M 4525 1747 
Q 4525 2481 4298 2792 
Q 4072 3103 3688 3103 
Q 3381 3103 3025 2578 
L 3025 916 
Q 3381 391 3688 391 
Q 4072 391 4298 702 
Q 4525 1013 4525 1747 
z
" id="DejaVuSans-444" transform="scale(0.015625)"/>
      <path d="M 1156 1613 
L 1156 459 
L 1975 459 
Q 2369 459 2575 607 
Q 2781 756 2781 1038 
Q 2781 1319 2575 1466 
Q 2369 1613 1975 1613 
L 1156 1613 
z
M 1156 3041 
L 1156 2072 
L 1913 2072 
Q 2238 2072 2444 2201 
Q 2650 2331 2650 2563 
Q 2650 2794 2444 2917 
Q 2238 3041 1913 3041 
L 1156 3041 
z
M 581 3500 
L 1950 3500 
Q 2566 3500 2897 3275 
Q 3228 3050 3228 2634 
Q 3228 2313 3059 2123 
Q 2891 1934 2559 1888 
Q 2956 1813 3175 1575 
Q 3394 1338 3394 981 
Q 3394 513 3033 256 
Q 2672 0 2003 0 
L 581 0 
L 581 3500 
z
" id="DejaVuSans-432" transform="scale(0.015625)"/>
      <path d="M 1959 3097 
Q 1497 3097 1228 2736 
Q 959 2375 959 1747 
Q 959 1119 1226 758 
Q 1494 397 1959 397 
Q 2419 397 2687 759 
Q 2956 1122 2956 1747 
Q 2956 2369 2687 2733 
Q 2419 3097 1959 3097 
z
M 1959 3584 
Q 2709 3584 3137 3096 
Q 3566 2609 3566 1747 
Q 3566 888 3137 398 
Q 2709 -91 1959 -91 
Q 1206 -91 779 398 
Q 353 888 353 1747 
Q 353 2609 779 3096 
Q 1206 3584 1959 3584 
z
" id="DejaVuSans-43e" transform="scale(0.015625)"/>
      <path d="M 188 3500 
L 3541 3500 
L 3541 3041 
L 2147 3041 
L 2147 0 
L 1581 0 
L 1581 3041 
L 188 3041 
L 188 3500 
z
" id="DejaVuSans-442" transform="scale(0.015625)"/>
     </defs>
     <use xlink:href="#DejaVuSans-413"/>
     <use x="60.986328" xlink:href="#DejaVuSans-440"/>
     <use x="124.462891" xlink:href="#DejaVuSans-430"/>
     <use x="185.742188" xlink:href="#DejaVuSans-444"/>
     <use x="271.240234" xlink:href="#DejaVuSans-438"/>
     <use x="336.230469" xlink:href="#DejaVuSans-43a"/>
     <use x="396.630859" xlink:href="#DejaVuSans-20"/>
     <use x="428.417969" xlink:href="#DejaVuSans-437"/>
     <use x="481.591797" xlink:href="#DejaVuSans-430"/>
     <use x="542.871094" xlink:href="#DejaVuSans-432"/>
     <use x="601.806641" xlink:href="#DejaVuSans-438"/>
     <use x="666.796875" xlink:href="#DejaVuSans-441"/>
     <use x="721.777344" xlink:href="#DejaVuSans-438"/>
     <use x="786.767578" xlink:href="#DejaVuSans-43c"/>
     <use x="862.207031" xlink:href="#DejaVuSans-43e"/>
     <use x="923.388672" xlink:href="#DejaVuSans-441"/>
     <use x="978.369141" xlink:href="#DejaVuSans-442"/>
     <use x="1036.621094" xlink:href="#DejaVuSans-438"/>
     <use x="1101.611328" xlink:href="#DejaVuSans-20"/>
     <use x="1133.398438" xlink:href="#DejaVuSans-55"/>
     <use x="1206.591797" xlink:href="#DejaVuSans-28"/>
     <use x="1245.605469" xlink:href="#DejaVuSans-42"/>
     <use x="1314.208984" xlink:href="#DejaVuSans-29"/>
     <use x="1353.222656" xlink:href="#DejaVuSans-20"/>
     <use x="1385.009766" xlink:href="#DejaVuSans-43e"/>
     <use x="1446.191406" xlink:href="#DejaVuSans-442"/>
     <use x="1504.443359" xlink:href="#DejaVuSans-20"/>
     <use x="1536.230469" xlink:href="#DejaVuSans-74"/>
     <use x="1575.439453" xlink:href="#DejaVuSans-28"/>
     <use x="1614.453125" xlink:href="#DejaVuSans-441"/>
     <use x="1669.433594" xlink:href="#DejaVuSans-29"/>
    </g>
   </g>
  </g>
 </g>
 <defs>
  <clipPath id="p502dbb73ba">
   <rect height="1386" width="669.6" x="108" y="216"/>
  </clipPath>
 </defs>
</svg>
